<svg xmlns="http://www.w3.org/2000/svg" width="513.026" height="587.104" viewBox="0 0 513.026 587.104">
  <g id="logo_chill" transform="translate(-159.486 -136.498)">
    <path id="Sustracción_4" data-name="Sustracción 4" d="M41.745,367.175h0a160.935,160.935,0,0,1-14.887-18.952,159.235,159.235,0,0,1-10.87-18.931,161.582,161.582,0,0,1-12.181-34.7,153.586,153.586,0,0,1-3.626-25.35,88.465,88.465,0,0,1-.093-9.818,384.729,384.729,0,0,1,3.431-43.342,317.068,317.068,0,0,1,7.652-38.193,270.167,270.167,0,0,1,11.265-33.368A240.076,240.076,0,0,1,36.7,115.648a221.32,221.32,0,0,1,74.731-76.984,248.121,248.121,0,0,1,39.4-19.937A262.822,262.822,0,0,1,185.048,7.7a236.158,236.158,0,0,1,24.128-4.71c4.937-.686,8.2-.933,9.077-.993l.039,0h.013l.022,0,.024,0c.812-.125,3.868-.567,9.129-.989,5.661-.456,15.2-1,28.519-1l37.692,1.995.047,0c.881.059,4.138.306,9.084.993A236.166,236.166,0,0,1,326.951,7.7a263.112,263.112,0,0,1,34.216,11.026,248.311,248.311,0,0,1,39.4,19.937A221.34,221.34,0,0,1,475.3,115.648a240.455,240.455,0,0,1,14.26,28.87,269.471,269.471,0,0,1,11.261,33.368,316.6,316.6,0,0,1,7.657,38.193,385.634,385.634,0,0,1,3.431,43.34,88.075,88.075,0,0,1-.093,9.82,154.483,154.483,0,0,1-3.627,25.35,161.572,161.572,0,0,1-12.184,34.7,158.989,158.989,0,0,1-10.867,18.931,160.723,160.723,0,0,1-14.89,18.951l-1.985-1.994L357.175,249.442c-8.611-9.24-12.727-19.21-12.231-29.633a39.834,39.834,0,0,1,2.9-12.9,52.63,52.63,0,0,1,5.525-10.2,55.967,55.967,0,0,1,7.758-9.118l.01-.009c8.934-8.986,18.589-13.542,28.7-13.542a35.3,35.3,0,0,1,10.034,1.491,40.791,40.791,0,0,1,7.865,3.285,37.334,37.334,0,0,1,6.965,4.776l85.3,77.823C469.9,116.966,395.878,86.645,339.084,86.645a171.978,171.978,0,0,0-28.03,2.363,189.032,189.032,0,0,0-22.59,5.2,147.633,147.633,0,0,0-20.561,7.565L256,107.761l-11.905-5.987a142.976,142.976,0,0,0-20.36-7.566,185.742,185.742,0,0,0-22.4-5.2,169.332,169.332,0,0,0-27.824-2.363c-56.427,0-130.252,30.321-161.523,174.768L97.295,183.59a34.1,34.1,0,0,1,6.56-4.776,37.26,37.26,0,0,1,7.568-3.285,33.762,33.762,0,0,1,9.86-1.491c10.051,0,20,4.556,29.571,13.542l0,0a55.957,55.957,0,0,1,8.219,9.134,51.425,51.425,0,0,1,5.833,10.215,37.666,37.666,0,0,1,3.025,12.909c.472,10.413-3.939,20.372-13.11,29.6L43.731,365.18l-1.986,1.995ZM388.914,199.554a25.675,25.675,0,0,0-9.579,1.777,22.056,22.056,0,0,0-12.459,12.533,27.144,27.144,0,0,0,0,19.27,22.053,22.053,0,0,0,12.459,12.533,25.672,25.672,0,0,0,9.579,1.778,25.393,25.393,0,0,0,19.14-8.883,20.942,20.942,0,0,0,4.032-7.123,16.726,16.726,0,0,0,.633-7.939,26.046,26.046,0,0,0-1.767-9.635,22.063,22.063,0,0,0-12.459-12.533A25.678,25.678,0,0,0,388.914,199.554Zm-267.814-2c-14.239,0-23.8,12.383-23.8,23.948a26.086,26.086,0,0,0,1.767,9.635,22.072,22.072,0,0,0,12.46,12.534,26.7,26.7,0,0,0,19.157,0,22.072,22.072,0,0,0,12.46-12.534,27.157,27.157,0,0,0,0-19.27,22.076,22.076,0,0,0-12.46-12.536A25.66,25.66,0,0,0,121.1,197.556Z" transform="translate(160 136.998)" fill="#fff" stroke="rgba(0,0,0,0)" stroke-miterlimit="10" stroke-width="1"/>
    <circle id="Oval" cx="51.565" cy="51.565" r="51.565" transform="translate(364.799 341.798)" fill="#fff"/>
    <g id="Group" transform="translate(228.754 577.317)">
      <path id="Path" d="M61.44,116.869a28.283,28.283,0,0,1-9.133,20.671,31.015,31.015,0,0,1-43.174,0A28.283,28.283,0,0,1,0,116.869V29.416A28.283,28.283,0,0,1,9.133,8.745a31.015,31.015,0,0,1,43.174,0A28.283,28.283,0,0,1,61.44,29.416v12.72H44V29.416a12.534,12.534,0,0,0-4.151-8.745A13.6,13.6,0,0,0,30.72,16.7a13.6,13.6,0,0,0-9.133,3.975,12.534,12.534,0,0,0-4.151,8.745v87.453a12.534,12.534,0,0,0,4.151,8.745,13.6,13.6,0,0,0,9.133,3.975,13.6,13.6,0,0,0,9.133-3.975A12.534,12.534,0,0,0,44,116.869v-12.72H61.44Z" fill="#fff"/>
      <path id="Path-2" data-name="Path" d="M61.44,146.285H44V81.093H17.436v65.192H0V0H17.436V65.192H44V0H61.44Z" transform="translate(90.189)" fill="#fff"/>
      <path id="Path-3" data-name="Path" d="M17.554,146.285H0V0H17.554Z" transform="translate(184.373)" fill="#fff"/>
      <path id="Path-4" data-name="Path" d="M52.663,146.285H0V0H17.554V129.589H52.663v16.7Z" transform="translate(232.753)" fill="#fff"/>
      <path id="Path-5" data-name="Path" d="M52.663,146.285H0V0H17.554V129.589H52.663v16.7Z" transform="translate(306.4)" fill="#fff"/>
    </g>
  </g>
</svg>
